<svg width="91" height="19" viewBox="0 0 91 19" fill="none" xmlns="http://www.w3.org/2000/svg">
<path d="M28.814 12.7261C28.2547 12.7261 27.75 12.5931 27.2998 12.3271C26.8497 12.0543 26.4916 11.6587 26.2256 11.1404C25.9664 10.622 25.8368 9.99793 25.8368 9.26813C25.8368 8.72249 25.9118 8.23482 26.0619 7.80513C26.2188 7.37544 26.437 7.01054 26.7167 6.71044C26.9963 6.40352 27.3169 6.17162 27.6783 6.01475C28.0467 5.85788 28.4422 5.77944 28.8651 5.77944C29.2812 5.77944 29.6495 5.8647 29.97 6.03521C30.2974 6.1989 30.56 6.39329 30.7578 6.61836L30.1951 7.29359C30.0246 7.10944 29.8302 6.9628 29.612 6.85367C29.4005 6.74454 29.1584 6.68998 28.8856 6.68998C28.4968 6.68998 28.1524 6.79229 27.8523 6.9969C27.559 7.20152 27.3271 7.4948 27.1566 7.87675C26.9929 8.2587 26.911 8.71226 26.911 9.23744C26.911 9.76944 26.9895 10.2298 27.1463 10.6186C27.31 11.0005 27.5351 11.2972 27.8216 11.5087C28.1149 11.7133 28.4593 11.8156 28.8549 11.8156C29.1686 11.8156 29.4449 11.7508 29.6836 11.6212C29.9223 11.4916 30.1406 11.3177 30.3383 11.0994L30.901 11.7542C30.635 12.0611 30.3281 12.2999 29.9803 12.4704C29.6392 12.6409 29.2505 12.7261 28.814 12.7261ZM31.9877 12.6034V7.60052H33.021V12.6034H31.9877ZM32.5095 6.65929C32.3322 6.65929 32.1821 6.60131 32.0594 6.48536C31.9366 6.36259 31.8752 6.21254 31.8752 6.03521C31.8752 5.85106 31.9366 5.70441 32.0594 5.59529C32.1821 5.47934 32.3322 5.42136 32.5095 5.42136C32.7005 5.42136 32.8539 5.47934 32.9699 5.59529C33.0858 5.70441 33.1438 5.85106 33.1438 6.03521C33.1438 6.21254 33.0858 6.36259 32.9699 6.48536C32.8539 6.60131 32.7005 6.65929 32.5095 6.65929ZM36.2732 12.7261C35.7208 12.7261 35.3286 12.5659 35.0967 12.2453C34.8716 11.9179 34.7591 11.495 34.7591 10.9767V8.42921H34.0327V7.65167L34.8102 7.60052L34.933 6.21936H35.7924V7.60052H37.1019V8.42921H35.7924V10.9767C35.7924 11.2768 35.8504 11.5053 35.9663 11.6621C36.0823 11.819 36.2698 11.8974 36.529 11.8974C36.6177 11.8974 36.7097 11.8838 36.8052 11.8565C36.9075 11.8292 36.9962 11.802 37.0712 11.7747L37.2554 12.542C37.119 12.5829 36.9655 12.6238 36.795 12.6647C36.6313 12.7057 36.4574 12.7261 36.2732 12.7261ZM38.4072 14.7007C38.2845 14.7007 38.1719 14.6904 38.0696 14.67C37.9673 14.6495 37.8718 14.6256 37.7832 14.5984L37.9775 13.7901C38.0321 13.8038 38.0935 13.8174 38.1617 13.8311C38.2299 13.8515 38.2913 13.8617 38.3458 13.8617C38.6187 13.8617 38.8403 13.7697 39.0108 13.5855C39.1814 13.4082 39.3109 13.1831 39.3996 12.9103L39.5019 12.5727L37.5172 7.60052H38.5709L39.5019 10.1889C39.5838 10.4072 39.6622 10.6391 39.7372 10.8846C39.8123 11.1233 39.8873 11.362 39.9623 11.6007H40.0032C40.0714 11.3689 40.1396 11.1335 40.2078 10.8948C40.276 10.6493 40.3408 10.414 40.4022 10.1889L41.2105 7.60052H42.2131L40.3715 12.9103C40.2419 13.265 40.0919 13.5753 39.9214 13.8413C39.7509 14.1141 39.5428 14.3255 39.2973 14.4756C39.0586 14.6256 38.7619 14.7007 38.4072 14.7007ZM44.8178 12.6034V11.9793L48.1837 6.78206H45.1247V5.90221H49.4728V6.52629L46.1068 11.7235H49.5035V12.6034H44.8178ZM52.5163 12.7261C52.107 12.7261 51.7217 12.6238 51.3602 12.4192C51.0055 12.2078 50.7156 11.9077 50.4906 11.5189C50.2723 11.1301 50.1632 10.6595 50.1632 10.1071C50.1632 9.54777 50.2723 9.07375 50.4906 8.68498C50.7156 8.28939 51.0055 7.98929 51.3602 7.78467C51.7217 7.58006 52.107 7.47775 52.5163 7.47775C52.9323 7.47775 53.3177 7.58006 53.6723 7.78467C54.027 7.98929 54.3135 8.28939 54.5317 8.68498C54.7568 9.07375 54.8693 9.54777 54.8693 10.1071C54.8693 10.6595 54.7568 11.1301 54.5317 11.5189C54.3135 11.9077 54.027 12.2078 53.6723 12.4192C53.3177 12.6238 52.9323 12.7261 52.5163 12.7261ZM52.5163 11.877C52.7823 11.877 53.0107 11.8054 53.2017 11.6621C53.3995 11.5121 53.5496 11.3041 53.6519 11.0381C53.7542 10.7721 53.8053 10.4617 53.8053 10.1071C53.8053 9.75239 53.7542 9.44206 53.6519 9.17606C53.5496 8.90323 53.3995 8.69521 53.2017 8.55198C53.0107 8.40193 52.7823 8.3269 52.5163 8.3269C52.2571 8.3269 52.0286 8.40193 51.8308 8.55198C51.6398 8.69521 51.4898 8.90323 51.3806 9.17606C51.2783 9.44206 51.2272 9.75239 51.2272 10.1071C51.2272 10.4617 51.2783 10.7721 51.3806 11.0381C51.4898 11.3041 51.6398 11.5121 51.8308 11.6621C52.0286 11.8054 52.2571 11.877 52.5163 11.877ZM56.096 12.6034V7.60052H56.9451L57.027 8.29621H57.0577C57.2896 8.06431 57.5385 7.86993 57.8045 7.71306C58.0705 7.55618 58.374 7.47775 58.7151 7.47775C59.2539 7.47775 59.6427 7.64826 59.8814 7.98929C60.1269 8.33031 60.2497 8.81798 60.2497 9.45229V12.6034H59.2164V9.58529C59.2164 9.14877 59.1482 8.83844 59.0118 8.65429C58.8822 8.46331 58.6673 8.36782 58.3672 8.36782C58.1353 8.36782 57.9273 8.4258 57.7431 8.54175C57.5658 8.6577 57.3612 8.82821 57.1293 9.05329V12.6034H56.096ZM63.848 12.7261C63.3978 12.7261 62.9886 12.6238 62.6203 12.4192C62.252 12.2078 61.9587 11.9077 61.7404 11.5189C61.5222 11.1233 61.413 10.6527 61.413 10.1071C61.413 9.56141 61.5222 9.09421 61.7404 8.70544C61.9587 8.30985 62.2417 8.00634 62.5896 7.7949C62.9374 7.58347 63.3057 7.47775 63.6945 7.47775C64.1378 7.47775 64.5095 7.57664 64.8096 7.77444C65.1166 7.97223 65.3451 8.24847 65.4951 8.60313C65.652 8.9578 65.7304 9.37044 65.7304 9.84106C65.7304 9.93654 65.727 10.0354 65.7202 10.1377C65.7134 10.2332 65.7031 10.3117 65.6895 10.3731H62.2213L62.211 9.6569H64.8301C64.8301 9.22039 64.7346 8.88277 64.5436 8.64406C64.3595 8.40534 64.0833 8.28598 63.715 8.28598C63.4967 8.28598 63.2853 8.34736 63.0806 8.47013C62.876 8.5929 62.7055 8.7907 62.5691 9.06352C62.4395 9.32952 62.3747 9.67736 62.3747 10.1071C62.3747 10.5231 62.4498 10.8641 62.5998 11.1301C62.7499 11.3961 62.9476 11.5939 63.1932 11.7235C63.4387 11.8531 63.7013 11.9179 63.981 11.9179C64.2129 11.9179 64.4243 11.8838 64.6153 11.8156C64.8062 11.7474 64.9938 11.6553 65.178 11.5394L65.536 12.1941C65.311 12.3442 65.0552 12.4704 64.7687 12.5727C64.4823 12.675 64.1753 12.7261 63.848 12.7261Z" fill="#58656D"/>
<rect x="0.479567" y="0.479567" width="89.4445" height="18.0409" rx="7.19351" stroke="#25BEB7" stroke-width="0.959135"/>
</svg>
