<svg width="93" height="19" viewBox="0 0 93 19" fill="none" xmlns="http://www.w3.org/2000/svg">
<rect width="92.8274" height="19" rx="7.67308" fill="#8BDC8E"/>
<path d="M18.2484 12.6035V5.92282H20.4787C20.9698 5.92282 21.4131 5.99103 21.8087 6.12744C22.2043 6.25703 22.5181 6.47528 22.7499 6.78221C22.9887 7.08913 23.108 7.50859 23.108 8.04059C23.108 8.55213 22.9921 8.975 22.7602 9.30921C22.5283 9.63659 22.2145 9.87872 21.8189 10.0356C21.4302 10.1925 20.9971 10.2709 20.5196 10.2709H19.65V12.6035H18.2484ZM19.65 9.15575H20.4276C20.8709 9.15575 21.1983 9.06367 21.4097 8.87952C21.628 8.68854 21.7371 8.4089 21.7371 8.04059C21.7371 7.67228 21.6212 7.41311 21.3893 7.26305C21.1642 7.113 20.83 7.03798 20.3866 7.03798H19.65V9.15575ZM24.1904 12.6035V7.53928H25.326L25.4283 8.42936H25.4693C25.6534 8.09516 25.8717 7.8428 26.124 7.67228C26.3832 7.50177 26.6424 7.41652 26.9016 7.41652C27.038 7.41652 27.1539 7.42675 27.2494 7.44721C27.3449 7.46085 27.4267 7.48472 27.4949 7.51882L27.2596 8.72605C27.171 8.70559 27.0857 8.68854 27.0039 8.6749C26.9288 8.65444 26.8368 8.64421 26.7276 8.64421C26.5298 8.64421 26.3252 8.71582 26.1138 8.85905C25.9024 9.00228 25.725 9.25464 25.5818 9.61613V12.6035H24.1904ZM28.1768 12.6035V7.53928H29.5682V12.6035H28.1768ZM28.8725 6.75152C28.6474 6.75152 28.4599 6.68331 28.3098 6.5469C28.1598 6.40367 28.0847 6.22293 28.0847 6.00467C28.0847 5.78641 28.1598 5.60908 28.3098 5.47267C28.4599 5.32944 28.6474 5.25782 28.8725 5.25782C29.1044 5.25782 29.292 5.32944 29.4352 5.47267C29.5852 5.60908 29.6603 5.78641 29.6603 6.00467C29.6603 6.22293 29.5852 6.40367 29.4352 6.5469C29.292 6.68331 29.1044 6.75152 28.8725 6.75152ZM32.1204 12.6035L30.3914 7.53928H31.8032L32.5091 10.0049C32.5705 10.2573 32.6353 10.513 32.7035 10.7722C32.7717 11.0314 32.8399 11.2906 32.9081 11.5497H32.9491C33.0173 11.2906 33.0855 11.0314 33.1537 10.7722C33.2219 10.513 33.2901 10.2573 33.3583 10.0049L34.0642 7.53928H35.4045L33.7266 12.6035H32.1204ZM37.2781 12.7263C36.9712 12.7263 36.7052 12.6615 36.4801 12.5319C36.255 12.3955 36.0811 12.2147 35.9584 11.9897C35.8356 11.7578 35.7742 11.4986 35.7742 11.2121C35.7742 10.6801 36.0027 10.2641 36.4597 9.96398C36.9166 9.66387 37.6498 9.45926 38.6593 9.35013C38.6525 9.19326 38.6218 9.05344 38.5672 8.93067C38.5126 8.8079 38.424 8.71241 38.3012 8.64421C38.1784 8.56918 38.0181 8.53167 37.8204 8.53167C37.5953 8.53167 37.3702 8.576 37.1451 8.66467C36.9269 8.75334 36.6984 8.86587 36.4597 9.00228L35.9584 8.08152C36.163 7.95875 36.3778 7.84621 36.6029 7.7439C36.8348 7.64159 37.0735 7.56316 37.319 7.50859C37.5646 7.44721 37.8204 7.41652 38.0864 7.41652C38.516 7.41652 38.8775 7.50177 39.1708 7.67228C39.4641 7.8428 39.6858 8.09516 39.8358 8.42936C39.9859 8.75675 40.0609 9.1728 40.0609 9.67752V12.6035H38.915L38.8127 12.0715H38.782C38.5638 12.2625 38.3285 12.4194 38.0761 12.5421C37.8306 12.6649 37.5646 12.7263 37.2781 12.7263ZM37.7385 11.6418C37.9227 11.6418 38.0829 11.6009 38.2194 11.5191C38.3626 11.4304 38.5092 11.3144 38.6593 11.1712V10.1993C38.2705 10.2538 37.9636 10.3255 37.7385 10.4141C37.5134 10.496 37.3531 10.5983 37.2577 10.7211C37.1622 10.837 37.1144 10.9632 37.1144 11.0996C37.1144 11.2837 37.1724 11.4202 37.2884 11.5088C37.4043 11.5975 37.5544 11.6418 37.7385 11.6418ZM43.1077 12.7263C42.4939 12.7263 42.0574 12.549 41.7982 12.1943C41.539 11.8396 41.4094 11.3758 41.4094 10.8029V8.64421H40.7035V7.60067L41.481 7.53928L41.6447 6.18882H42.8008V7.53928H44.0387V8.64421H42.8008V10.7927C42.8008 11.0791 42.8588 11.2906 42.9747 11.427C43.0975 11.5566 43.2646 11.6214 43.476 11.6214C43.5647 11.6214 43.6534 11.6111 43.742 11.5907C43.8307 11.5702 43.9092 11.5463 43.9774 11.5191L44.2024 12.5421C44.066 12.5831 43.9057 12.624 43.7216 12.6649C43.5374 12.7058 43.3328 12.7263 43.1077 12.7263ZM47.122 12.7263C46.6446 12.7263 46.2115 12.6206 45.8227 12.4091C45.4408 12.1977 45.1373 11.8976 44.9122 11.5088C44.6939 11.1132 44.5848 10.6358 44.5848 10.0765C44.5848 9.53087 44.6973 9.06026 44.9224 8.66467C45.1475 8.26908 45.4408 7.96216 45.8023 7.7439C46.1638 7.52564 46.5457 7.41652 46.9481 7.41652C47.4187 7.41652 47.8109 7.52223 48.1247 7.73367C48.4452 7.94511 48.6839 8.23498 48.8408 8.60328C49.0045 8.96477 49.0863 9.37741 49.0863 9.84121C49.0863 9.96398 49.0795 10.0867 49.0659 10.2095C49.0522 10.3255 49.0386 10.4141 49.025 10.4755H45.6795L45.6693 9.54452H47.8893C47.8893 9.22395 47.8143 8.96818 47.6643 8.77721C47.521 8.58623 47.2926 8.49075 46.9788 8.49075C46.7947 8.49075 46.6173 8.5419 46.4468 8.64421C46.2763 8.74652 46.1365 8.91362 46.0273 9.14552C45.9182 9.37741 45.8637 9.68775 45.8637 10.0765C45.8637 10.4653 45.9319 10.7756 46.0683 11.0075C46.2115 11.2326 46.3922 11.3963 46.6105 11.4986C46.8288 11.6009 47.0607 11.6521 47.3062 11.6521C47.5108 11.6521 47.7018 11.6248 47.8791 11.5702C48.0633 11.5088 48.2474 11.4236 48.4316 11.3144L48.892 12.1636C48.6396 12.3341 48.3566 12.4705 48.0428 12.5728C47.7359 12.6751 47.429 12.7263 47.122 12.7263ZM51.878 12.6035V11.7544L54.9268 7.09936H52.1644V5.92282H56.6558V6.77198L53.607 11.427H56.6762V12.6035H51.878ZM59.7285 12.7263C59.2988 12.7263 58.8964 12.624 58.5213 12.4194C58.153 12.2079 57.8529 11.9044 57.621 11.5088C57.3959 11.1132 57.2834 10.6358 57.2834 10.0765C57.2834 9.51723 57.3959 9.0398 57.621 8.64421C57.8529 8.24862 58.153 7.94511 58.5213 7.73367C58.8964 7.52223 59.2988 7.41652 59.7285 7.41652C60.1514 7.41652 60.547 7.52223 60.9153 7.73367C61.2904 7.94511 61.5939 8.24862 61.8258 8.64421C62.0577 9.0398 62.1737 9.51723 62.1737 10.0765C62.1737 10.6358 62.0577 11.1132 61.8258 11.5088C61.5939 11.9044 61.2904 12.2079 60.9153 12.4194C60.547 12.624 60.1514 12.7263 59.7285 12.7263ZM59.7285 11.5907C59.9468 11.5907 60.1309 11.5293 60.281 11.4065C60.431 11.2837 60.5436 11.1098 60.6186 10.8847C60.7004 10.6528 60.7414 10.3834 60.7414 10.0765C60.7414 9.76959 60.7004 9.50359 60.6186 9.27852C60.5436 9.04662 60.431 8.86928 60.281 8.74652C60.1309 8.61693 59.9468 8.55213 59.7285 8.55213C59.5034 8.55213 59.3159 8.61693 59.1658 8.74652C59.0158 8.86928 58.9032 9.04662 58.8282 9.27852C58.7532 9.50359 58.7157 9.76959 58.7157 10.0765C58.7157 10.3834 58.7532 10.6528 58.8282 10.8847C58.9032 11.1098 59.0158 11.2837 59.1658 11.4065C59.3159 11.5293 59.5034 11.5907 59.7285 11.5907ZM63.2452 12.6035V7.53928H64.3808L64.4831 8.19405H64.524C64.7423 7.98262 64.981 7.80187 65.2402 7.65182C65.5062 7.49495 65.8131 7.41652 66.1609 7.41652C66.7066 7.41652 67.1022 7.59726 67.3477 7.95875C67.6001 8.32023 67.7263 8.81813 67.7263 9.45244V12.6035H66.3246V9.62636C66.3246 9.24441 66.2701 8.98182 66.1609 8.83859C66.0586 8.68854 65.8881 8.61352 65.6494 8.61352C65.4448 8.61352 65.2709 8.66126 65.1276 8.75675C64.9844 8.84541 64.8207 8.975 64.6366 9.14552V12.6035H63.2452ZM71.2902 12.7263C70.8128 12.7263 70.3797 12.6206 69.9909 12.4091C69.609 12.1977 69.3055 11.8976 69.0804 11.5088C68.8621 11.1132 68.753 10.6358 68.753 10.0765C68.753 9.53087 68.8655 9.06026 69.0906 8.66467C69.3157 8.26908 69.609 7.96216 69.9705 7.7439C70.3319 7.52564 70.7139 7.41652 71.1163 7.41652C71.5869 7.41652 71.9791 7.52223 72.2928 7.73367C72.6134 7.94511 72.8521 8.23498 73.009 8.60328C73.1727 8.96477 73.2545 9.37741 73.2545 9.84121C73.2545 9.96398 73.2477 10.0867 73.2341 10.2095C73.2204 10.3255 73.2068 10.4141 73.1932 10.4755H69.8477L69.8375 9.54452H72.0575C72.0575 9.22395 71.9825 8.96818 71.8325 8.77721C71.6892 8.58623 71.4607 8.49075 71.147 8.49075C70.9628 8.49075 70.7855 8.5419 70.615 8.64421C70.4445 8.74652 70.3047 8.91362 70.1955 9.14552C70.0864 9.37741 70.0318 9.68775 70.0318 10.0765C70.0318 10.4653 70.1001 10.7756 70.2365 11.0075C70.3797 11.2326 70.5604 11.3963 70.7787 11.4986C70.9969 11.6009 71.2288 11.6521 71.4744 11.6521C71.679 11.6521 71.87 11.6248 72.0473 11.5702C72.2315 11.5088 72.4156 11.4236 72.5998 11.3144L73.0602 12.1636C72.8078 12.3341 72.5247 12.4705 72.211 12.5728C71.9041 12.6751 71.5972 12.7263 71.2902 12.7263Z" fill="white"/>
</svg>
