<svg width="146" height="19" viewBox="0 0 146 19" fill="none" xmlns="http://www.w3.org/2000/svg">
<path d="M20.0483 12.8086V6.98729H18.0737V6.10744H23.0664V6.98729H21.0918V12.8086H20.0483ZM25.4261 12.9314C25.0169 12.9314 24.6316 12.8291 24.2701 12.6244C23.9154 12.413 23.6255 12.1129 23.4005 11.7241C23.1822 11.3354 23.0731 10.8647 23.0731 10.3123C23.0731 9.753 23.1822 9.27898 23.4005 8.89021C23.6255 8.49462 23.9154 8.19452 24.2701 7.9899C24.6316 7.78529 25.0169 7.68298 25.4261 7.68298C25.8422 7.68298 26.2276 7.78529 26.5822 7.9899C26.9369 8.19452 27.2234 8.49462 27.4416 8.89021C27.6667 9.27898 27.7792 9.753 27.7792 10.3123C27.7792 10.8647 27.6667 11.3354 27.4416 11.7241C27.2234 12.1129 26.9369 12.413 26.5822 12.6244C26.2276 12.8291 25.8422 12.9314 25.4261 12.9314ZM25.4261 12.0822C25.6921 12.0822 25.9206 12.0106 26.1116 11.8674C26.3094 11.7173 26.4595 11.5093 26.5618 11.2433C26.6641 10.9773 26.7152 10.667 26.7152 10.3123C26.7152 9.95762 26.6641 9.64729 26.5618 9.38129C26.4595 9.10847 26.3094 8.90044 26.1116 8.75721C25.9206 8.60716 25.6921 8.53213 25.4261 8.53213C25.167 8.53213 24.9385 8.60716 24.7407 8.75721C24.5497 8.90044 24.3997 9.10847 24.2905 9.38129C24.1882 9.64729 24.1371 9.95762 24.1371 10.3123C24.1371 10.667 24.1882 10.9773 24.2905 11.2433C24.3997 11.5093 24.5497 11.7173 24.7407 11.8674C24.9385 12.0106 25.167 12.0822 25.4261 12.0822ZM30.7246 15.0594C30.3222 15.0594 29.9642 15.0082 29.6504 14.9059C29.3367 14.8036 29.0911 14.6535 28.9138 14.4557C28.7365 14.2648 28.6478 14.0261 28.6478 13.7396C28.6478 13.5213 28.7126 13.3201 28.8422 13.136C28.9718 12.9518 29.1491 12.7881 29.3742 12.6449V12.604C29.2514 12.5153 29.1457 12.4062 29.057 12.2766C28.9684 12.1402 28.924 11.9731 28.924 11.7753C28.924 11.5707 28.982 11.3899 29.098 11.2331C29.2139 11.0694 29.3401 10.9398 29.4765 10.8443V10.8034C29.3128 10.6738 29.1628 10.493 29.0263 10.2611C28.8899 10.0292 28.8217 9.76664 28.8217 9.47336C28.8217 9.09823 28.9104 8.77767 29.0877 8.51167C29.2719 8.23885 29.5106 8.03423 29.8039 7.89782C30.0972 7.75459 30.4143 7.68298 30.7553 7.68298C30.8986 7.68298 31.0316 7.69321 31.1543 7.71367C31.2771 7.73413 31.3862 7.76482 31.4817 7.80575H33.2516V8.58329H32.29C32.3923 8.68559 32.4741 8.81859 32.5355 8.98229C32.5969 9.13916 32.6276 9.31308 32.6276 9.50406C32.6276 9.86554 32.5423 10.1759 32.3718 10.4351C32.2081 10.6874 31.983 10.8818 31.6966 11.0182C31.4169 11.1546 31.1032 11.2228 30.7553 11.2228C30.6462 11.2228 30.5303 11.2092 30.4075 11.1819C30.2847 11.1546 30.1654 11.1171 30.0494 11.0694C29.9744 11.1376 29.9096 11.2126 29.855 11.2944C29.8005 11.3695 29.7732 11.4718 29.7732 11.6014C29.7732 11.7446 29.8346 11.864 29.9573 11.9594C30.0801 12.0481 30.2984 12.0924 30.6121 12.0924H31.5431C32.1365 12.0924 32.5832 12.1879 32.8833 12.3789C33.1834 12.5699 33.3335 12.8802 33.3335 13.3099C33.3335 13.6305 33.2278 13.9203 33.0163 14.1795C32.8049 14.4455 32.5014 14.657 32.1058 14.8138C31.717 14.9775 31.2566 15.0594 30.7246 15.0594ZM30.8781 14.3739C31.1714 14.3739 31.4238 14.3296 31.6352 14.2409C31.8534 14.1591 32.024 14.0499 32.1467 13.9135C32.2695 13.7771 32.3309 13.6305 32.3309 13.4736C32.3309 13.2622 32.249 13.1155 32.0853 13.0337C31.9285 12.9586 31.7 12.9211 31.3999 12.9211H30.6326C30.5166 12.9211 30.4041 12.9143 30.295 12.9007C30.1858 12.887 30.0767 12.87 29.9676 12.8495C29.8175 12.9586 29.705 13.0746 29.63 13.1974C29.5618 13.327 29.5276 13.4565 29.5276 13.5861C29.5276 13.8317 29.647 14.0226 29.8857 14.1591C30.1313 14.3023 30.4621 14.3739 30.8781 14.3739ZM30.7553 10.5578C30.9327 10.5578 31.093 10.5135 31.2362 10.4248C31.3794 10.3362 31.492 10.2134 31.5738 10.0565C31.6625 9.89282 31.7068 9.69844 31.7068 9.47336C31.7068 9.24829 31.6625 9.05731 31.5738 8.90044C31.492 8.74357 31.3794 8.62421 31.2362 8.54236C31.093 8.4537 30.9327 8.40936 30.7553 8.40936C30.4893 8.40936 30.2643 8.50144 30.0801 8.68559C29.896 8.86975 29.8039 9.13234 29.8039 9.47336C29.8039 9.69844 29.8482 9.89282 29.9369 10.0565C30.0255 10.2134 30.1415 10.3362 30.2847 10.4248C30.428 10.5135 30.5848 10.5578 30.7553 10.5578ZM36.1884 12.9314C35.7382 12.9314 35.329 12.8291 34.9607 12.6244C34.5924 12.413 34.2991 12.1129 34.0808 11.7241C33.8626 11.3285 33.7534 10.8579 33.7534 10.3123C33.7534 9.76664 33.8626 9.29944 34.0808 8.91067C34.2991 8.51508 34.5821 8.21157 34.93 8.00013C35.2778 7.7887 35.6461 7.68298 36.0349 7.68298C36.4782 7.68298 36.8499 7.78188 37.1501 7.97967C37.457 8.17747 37.6855 8.4537 37.8355 8.80836C37.9924 9.16303 38.0708 9.57567 38.0708 10.0463C38.0708 10.1418 38.0674 10.2407 38.0606 10.343C38.0538 10.4385 38.0435 10.5169 38.0299 10.5783H34.5617L34.5514 9.86213H37.1705C37.1705 9.42562 37.075 9.088 36.8841 8.84929C36.6999 8.61057 36.4237 8.49121 36.0554 8.49121C35.8371 8.49121 35.6257 8.55259 35.4211 8.67536C35.2164 8.79813 35.0459 8.99593 34.9095 9.26875C34.7799 9.53475 34.7151 9.88259 34.7151 10.3123C34.7151 10.7283 34.7902 11.0694 34.9402 11.3354C35.0903 11.6014 35.2881 11.7992 35.5336 11.9287C35.7791 12.0583 36.0417 12.1231 36.3214 12.1231C36.5533 12.1231 36.7647 12.089 36.9557 12.0208C37.1466 11.9526 37.3342 11.8605 37.5184 11.7446L37.8764 12.3994C37.6514 12.5494 37.3956 12.6756 37.1091 12.7779C36.8227 12.8802 36.5157 12.9314 36.1884 12.9314ZM40.8146 12.9314C40.2621 12.9314 39.8699 12.7711 39.638 12.4505C39.413 12.1231 39.3004 11.7003 39.3004 11.1819V8.63444H38.574V7.8569L39.3516 7.80575L39.4744 6.42459H40.3337V7.80575H41.6433V8.63444H40.3337V11.1819C40.3337 11.482 40.3917 11.7105 40.5077 11.8674C40.6236 12.0242 40.8112 12.1027 41.0704 12.1027C41.159 12.1027 41.2511 12.089 41.3466 12.0617C41.4489 12.0345 41.5376 12.0072 41.6126 11.9799L41.7967 12.7472C41.6603 12.7881 41.5069 12.8291 41.3364 12.87C41.1727 12.9109 40.9987 12.9314 40.8146 12.9314ZM42.7235 12.8086V5.55498H43.7568V7.47836L43.7159 8.47075C43.941 8.25931 44.1831 8.07516 44.4423 7.91829C44.7015 7.76141 45.0016 7.68298 45.3426 7.68298C45.8814 7.68298 46.2702 7.85349 46.5089 8.19452C46.7544 8.53554 46.8772 9.02321 46.8772 9.65752V12.8086H45.8439V9.79052C45.8439 9.354 45.7757 9.04367 45.6393 8.85952C45.5097 8.66854 45.2948 8.57305 44.9947 8.57305C44.7628 8.57305 44.5548 8.63103 44.3707 8.74698C44.1933 8.86293 43.9887 9.03344 43.7568 9.25852V12.8086H42.7235ZM50.4555 12.9314C50.0053 12.9314 49.5961 12.8291 49.2278 12.6244C48.8595 12.413 48.5662 12.1129 48.348 11.7241C48.1297 11.3285 48.0206 10.8579 48.0206 10.3123C48.0206 9.76664 48.1297 9.29944 48.348 8.91067C48.5662 8.51508 48.8493 8.21157 49.1971 8.00013C49.545 7.7887 49.9133 7.68298 50.302 7.68298C50.7454 7.68298 51.1171 7.78188 51.4172 7.97967C51.7241 8.17747 51.9526 8.4537 52.1026 8.80836C52.2595 9.16303 52.338 9.57567 52.338 10.0463C52.338 10.1418 52.3345 10.2407 52.3277 10.343C52.3209 10.4385 52.3107 10.5169 52.297 10.5783H48.8288L48.8186 9.86213H51.4376C51.4376 9.42562 51.3422 9.088 51.1512 8.84929C50.967 8.61057 50.6908 8.49121 50.3225 8.49121C50.1042 8.49121 49.8928 8.55259 49.6882 8.67536C49.4836 8.79813 49.3131 8.99593 49.1766 9.26875C49.0471 9.53475 48.9823 9.88259 48.9823 10.3123C48.9823 10.7283 49.0573 11.0694 49.2073 11.3354C49.3574 11.6014 49.5552 11.7992 49.8007 11.9287C50.0463 12.0583 50.3088 12.1231 50.5885 12.1231C50.8204 12.1231 51.0318 12.089 51.2228 12.0208C51.4138 11.9526 51.6013 11.8605 51.7855 11.7446L52.1436 12.3994C51.9185 12.5494 51.6627 12.6756 51.3763 12.7779C51.0898 12.8802 50.7829 12.9314 50.4555 12.9314ZM53.5038 12.8086V7.80575H54.3529L54.4348 8.70606H54.4655C54.6428 8.37867 54.8542 8.12631 55.0998 7.94898C55.3521 7.77164 55.6147 7.68298 55.8875 7.68298C56.0103 7.68298 56.1126 7.6898 56.1945 7.70344C56.2831 7.71708 56.365 7.74436 56.44 7.78529L56.2559 8.68559C56.174 8.65831 56.0956 8.63785 56.0205 8.62421C55.9523 8.61057 55.8637 8.60375 55.7545 8.60375C55.5499 8.60375 55.3351 8.68559 55.11 8.84929C54.8918 9.00616 54.7008 9.2858 54.5371 9.68821V12.8086H53.5038ZM59.3507 12.8086V6.10744H61.54C62.0038 6.10744 62.4165 6.16882 62.778 6.29159C63.1395 6.40754 63.4259 6.60875 63.6374 6.89521C63.8488 7.18167 63.9545 7.56703 63.9545 8.05129C63.9545 8.51508 63.8488 8.89703 63.6374 9.19713C63.4259 9.49723 63.1395 9.72231 62.778 9.87236C62.4165 10.0224 62.0038 10.0974 61.54 10.0974H60.3942V12.8086H59.3507ZM63.0133 12.8086L61.3457 9.81098L62.1232 9.21759L64.1898 12.8086H63.0133ZM60.3942 9.25852H61.4173C61.9084 9.25852 62.2801 9.15962 62.5324 8.96182C62.7916 8.75721 62.9212 8.4537 62.9212 8.05129C62.9212 7.64205 62.7916 7.35559 62.5324 7.1919C62.2801 7.02821 61.9084 6.94636 61.4173 6.94636H60.3942V9.25852ZM67.2004 12.9314C66.7502 12.9314 66.341 12.8291 65.9727 12.6244C65.6044 12.413 65.3111 12.1129 65.0928 11.7241C64.8746 11.3285 64.7655 10.8579 64.7655 10.3123C64.7655 9.76664 64.8746 9.29944 65.0928 8.91067C65.3111 8.51508 65.5941 8.21157 65.942 8.00013C66.2898 7.7887 66.6581 7.68298 67.0469 7.68298C67.4902 7.68298 67.862 7.78188 68.1621 7.97967C68.469 8.17747 68.6975 8.4537 68.8475 8.80836C69.0044 9.16303 69.0828 9.57567 69.0828 10.0463C69.0828 10.1418 69.0794 10.2407 69.0726 10.343C69.0658 10.4385 69.0556 10.5169 69.0419 10.5783H65.5737L65.5635 9.86213H68.1825C68.1825 9.42562 68.087 9.088 67.8961 8.84929C67.7119 8.61057 67.4357 8.49121 67.0674 8.49121C66.8491 8.49121 66.6377 8.55259 66.4331 8.67536C66.2285 8.79813 66.0579 8.99593 65.9215 9.26875C65.7919 9.53475 65.7271 9.88259 65.7271 10.3123C65.7271 10.7283 65.8022 11.0694 65.9522 11.3354C66.1023 11.6014 66.3001 11.7992 66.5456 11.9287C66.7911 12.0583 67.0537 12.1231 67.3334 12.1231C67.5653 12.1231 67.7767 12.089 67.9677 12.0208C68.1587 11.9526 68.3462 11.8605 68.5304 11.7446L68.8885 12.3994C68.6634 12.5494 68.4076 12.6756 68.1211 12.7779C67.8347 12.8802 67.5278 12.9314 67.2004 12.9314ZM71.0769 12.8086L69.7264 7.80575H70.77L71.435 10.5271C71.4895 10.7659 71.5373 11.0012 71.5782 11.2331C71.6259 11.465 71.6703 11.7037 71.7112 11.9492H71.7521C71.8067 11.7037 71.8578 11.465 71.9056 11.2331C71.9601 10.9943 72.0181 10.759 72.0795 10.5271L72.7854 7.80575H73.7471L74.4633 10.5271C74.5247 10.7659 74.5826 11.0012 74.6372 11.2331C74.6918 11.465 74.7463 11.7037 74.8009 11.9492H74.8418C74.8964 11.7037 74.9441 11.465 74.985 11.2331C75.0328 11.0012 75.0805 10.7659 75.1283 10.5271L75.783 7.80575H76.755L75.4557 12.8086H74.2177L73.5732 10.3225C73.5186 10.0838 73.4675 9.84849 73.4197 9.61659C73.372 9.37788 73.3174 9.12893 73.256 8.86975H73.2151C73.1674 9.12893 73.1162 9.37788 73.0617 9.61659C73.0139 9.85531 72.9593 10.094 72.898 10.3327L72.2739 12.8086H71.0769ZM78.8787 12.9314C78.5923 12.9314 78.3365 12.8734 78.1114 12.7574C77.8932 12.6347 77.7192 12.4642 77.5896 12.2459C77.4669 12.0276 77.4055 11.7719 77.4055 11.4786C77.4055 10.9398 77.6442 10.5237 78.1216 10.2304C78.5991 9.93716 79.3596 9.73595 80.4031 9.62682C80.4031 9.42903 80.3724 9.24829 80.311 9.08459C80.2565 8.91408 80.1576 8.77767 80.0143 8.67536C79.8779 8.57306 79.687 8.5219 79.4414 8.5219C79.1754 8.5219 78.9196 8.57306 78.6741 8.67536C78.4354 8.77767 78.2103 8.89703 77.9989 9.03344L77.6101 8.33775C77.7806 8.22862 77.9716 8.1229 78.183 8.02059C78.3945 7.91829 78.6195 7.83644 78.8583 7.77506C79.1038 7.71367 79.3596 7.68298 79.6256 7.68298C80.0416 7.68298 80.3826 7.76823 80.6486 7.93875C80.9146 8.10244 81.1124 8.34457 81.242 8.66513C81.3716 8.97888 81.4364 9.35741 81.4364 9.80075V12.8086H80.5873L80.5054 12.2357H80.4747C80.2496 12.4266 80.0041 12.5903 79.7381 12.7267C79.4721 12.8632 79.1856 12.9314 78.8787 12.9314ZM79.1959 12.1129C79.421 12.1129 79.6256 12.0617 79.8097 11.9594C80.0007 11.8503 80.1985 11.7037 80.4031 11.5195V10.2816C79.9052 10.343 79.5096 10.4248 79.2163 10.5271C78.9299 10.6294 78.7218 10.7556 78.5923 10.9057C78.4695 11.0489 78.4081 11.216 78.4081 11.407C78.4081 11.6525 78.4831 11.8333 78.6332 11.9492C78.7901 12.0583 78.9776 12.1129 79.1959 12.1129ZM82.9172 12.8086V7.80575H83.7664L83.8482 8.70606H83.8789C84.0563 8.37867 84.2677 8.12631 84.5132 7.94898C84.7656 7.77164 85.0282 7.68298 85.301 7.68298C85.4238 7.68298 85.5261 7.6898 85.6079 7.70344C85.6966 7.71708 85.7784 7.74436 85.8535 7.78529L85.6693 8.68559C85.5875 8.65831 85.509 8.63785 85.434 8.62421C85.3658 8.61057 85.2771 8.60375 85.168 8.60375C84.9634 8.60375 84.7485 8.68559 84.5235 8.84929C84.3052 9.00616 84.1142 9.2858 83.9505 9.68821V12.8086H82.9172ZM88.253 12.9314C87.6323 12.9314 87.1344 12.7029 86.7593 12.2459C86.3842 11.7821 86.1966 11.1376 86.1966 10.3123C86.1966 9.76664 86.2955 9.29944 86.4933 8.91067C86.6979 8.51508 86.9639 8.21157 87.2913 8.00013C87.6187 7.7887 87.9665 7.68298 88.3348 7.68298C88.6281 7.68298 88.8771 7.73413 89.0817 7.83644C89.2863 7.93193 89.4875 8.06834 89.6853 8.24567L89.6444 7.41698V5.55498H90.6777V12.8086H89.8285L89.7467 12.2459H89.716C89.5318 12.4301 89.3136 12.5903 89.0612 12.7267C88.8089 12.8632 88.5395 12.9314 88.253 12.9314ZM88.4985 12.072C88.71 12.072 88.9078 12.0208 89.0919 11.9185C89.2829 11.8162 89.467 11.6627 89.6444 11.4581V9.00275C89.4602 8.83223 89.2761 8.71288 89.0919 8.64467C88.9146 8.57647 88.7304 8.54236 88.5395 8.54236C88.3076 8.54236 88.0927 8.61398 87.8949 8.75721C87.7039 8.89362 87.5505 9.09482 87.4345 9.36082C87.3186 9.62682 87.2606 9.94057 87.2606 10.3021C87.2606 10.8682 87.3697 11.3047 87.588 11.6116C87.8062 11.9185 88.1098 12.072 88.4985 12.072ZM96.3022 12.9314C95.8452 12.9314 95.4121 12.8427 95.0029 12.6654C94.5937 12.488 94.2322 12.2459 93.9184 11.939L94.5323 11.2228C94.7778 11.4615 95.054 11.6559 95.361 11.806C95.6747 11.9492 95.9953 12.0208 96.3227 12.0208C96.7319 12.0208 97.0456 11.9322 97.2639 11.7548C97.4821 11.5775 97.5913 11.3456 97.5913 11.0591C97.5913 10.8545 97.5435 10.6908 97.448 10.5681C97.3594 10.4453 97.2332 10.3396 97.0695 10.2509C96.9126 10.1622 96.7285 10.0736 96.517 9.9849L95.586 9.57567C95.3678 9.487 95.1529 9.36764 94.9415 9.21759C94.7369 9.06754 94.5664 8.87998 94.43 8.6549C94.2936 8.42982 94.2254 8.15359 94.2254 7.82621C94.2254 7.47154 94.3208 7.1578 94.5118 6.88498C94.7028 6.60534 94.962 6.38708 95.2894 6.23021C95.6167 6.06652 95.9919 5.98467 96.4147 5.98467C96.8103 5.98467 97.1855 6.06311 97.5401 6.21998C97.8948 6.37003 98.1949 6.57123 98.4404 6.82359L97.8982 7.48859C97.6936 7.30444 97.4685 7.16121 97.223 7.0589C96.9843 6.94977 96.7148 6.89521 96.4147 6.89521C96.0737 6.89521 95.7975 6.97364 95.586 7.13052C95.3814 7.28057 95.2791 7.492 95.2791 7.76482C95.2791 7.9558 95.3303 8.11267 95.4326 8.23544C95.5417 8.35821 95.6781 8.46052 95.8418 8.54236C96.0123 8.62421 96.1863 8.70264 96.3636 8.77767L97.2946 9.17667C97.5606 9.2858 97.7925 9.4188 97.9903 9.57567C98.1949 9.72572 98.3552 9.9167 98.4711 10.1486C98.5939 10.3737 98.6553 10.6499 98.6553 10.9773C98.6553 11.332 98.5598 11.6593 98.3688 11.9594C98.1847 12.2527 97.9153 12.488 97.5606 12.6654C97.2127 12.8427 96.7933 12.9314 96.3022 12.9314ZM100.047 14.9059C99.9243 14.9059 99.8117 14.8957 99.7094 14.8752C99.6071 14.8547 99.5116 14.8309 99.423 14.8036L99.6174 13.9954C99.6719 14.009 99.7333 14.0226 99.8015 14.0363C99.8697 14.0567 99.9311 14.067 99.9857 14.067C100.258 14.067 100.48 13.9749 100.651 13.7907C100.821 13.6134 100.951 13.3883 101.039 13.1155L101.142 12.7779L99.157 7.80575H100.211L101.142 10.3941C101.224 10.6124 101.302 10.8443 101.377 11.0898C101.452 11.3285 101.527 11.5673 101.602 11.806H101.643C101.711 11.5741 101.779 11.3388 101.848 11.1001C101.916 10.8545 101.981 10.6192 102.042 10.3941L102.85 7.80575H103.853L102.011 13.1155C101.882 13.4702 101.732 13.7805 101.561 14.0465C101.391 14.3193 101.183 14.5308 100.937 14.6808C100.698 14.8309 100.402 14.9059 100.047 14.9059ZM106.128 12.9314C105.78 12.9314 105.439 12.8666 105.105 12.737C104.778 12.6006 104.491 12.4335 104.246 12.2357L104.737 11.5707C104.962 11.7412 105.187 11.881 105.412 11.9901C105.637 12.0924 105.886 12.1436 106.159 12.1436C106.459 12.1436 106.681 12.0788 106.824 11.9492C106.967 11.8128 107.039 11.6525 107.039 11.4684C107.039 11.3115 106.984 11.1819 106.875 11.0796C106.766 10.9773 106.626 10.8886 106.456 10.8136C106.292 10.7386 106.118 10.667 105.934 10.5987C105.709 10.5101 105.484 10.4078 105.259 10.2918C105.04 10.1759 104.856 10.0258 104.706 9.84167C104.563 9.65752 104.491 9.42562 104.491 9.14598C104.491 8.72311 104.652 8.37526 104.972 8.10244C105.293 7.8228 105.726 7.68298 106.271 7.68298C106.606 7.68298 106.909 7.74095 107.182 7.8569C107.455 7.97285 107.69 8.10926 107.888 8.26613L107.407 8.91067C107.237 8.78108 107.059 8.67536 106.875 8.59352C106.698 8.51167 106.503 8.47075 106.292 8.47075C106.012 8.47075 105.804 8.53213 105.668 8.6549C105.538 8.77767 105.473 8.92431 105.473 9.09482C105.473 9.23806 105.525 9.35741 105.627 9.4529C105.729 9.54157 105.862 9.62 106.026 9.68821C106.19 9.75641 106.364 9.82462 106.548 9.89282C106.78 9.98149 107.008 10.0838 107.233 10.1997C107.465 10.3089 107.653 10.4589 107.796 10.6499C107.946 10.8409 108.021 11.0932 108.021 11.407C108.021 11.6866 107.949 11.9424 107.806 12.1743C107.663 12.3994 107.448 12.5835 107.162 12.7267C106.882 12.8632 106.537 12.9314 106.128 12.9314ZM110.702 12.9314C110.149 12.9314 109.757 12.7711 109.525 12.4505C109.3 12.1231 109.187 11.7003 109.187 11.1819V8.63444H108.461V7.8569L109.239 7.80575L109.361 6.42459H110.221V7.80575H111.53V8.63444H110.221V11.1819C110.221 11.482 110.279 11.7105 110.395 11.8674C110.511 12.0242 110.698 12.1027 110.957 12.1027C111.046 12.1027 111.138 12.089 111.234 12.0617C111.336 12.0345 111.425 12.0072 111.5 11.9799L111.684 12.7472C111.547 12.7881 111.394 12.8291 111.223 12.87C111.06 12.9109 110.886 12.9314 110.702 12.9314ZM114.548 12.9314C114.097 12.9314 113.688 12.8291 113.32 12.6244C112.952 12.413 112.658 12.1129 112.44 11.7241C112.222 11.3285 112.113 10.8579 112.113 10.3123C112.113 9.76664 112.222 9.29944 112.44 8.91067C112.658 8.51508 112.941 8.21157 113.289 8.00013C113.637 7.7887 114.005 7.68298 114.394 7.68298C114.838 7.68298 115.209 7.78188 115.509 7.97967C115.816 8.17747 116.045 8.4537 116.195 8.80836C116.352 9.16303 116.43 9.57567 116.43 10.0463C116.43 10.1418 116.427 10.2407 116.42 10.343C116.413 10.4385 116.403 10.5169 116.389 10.5783H112.921L112.911 9.86213H115.53C115.53 9.42562 115.434 9.088 115.243 8.84929C115.059 8.61057 114.783 8.49121 114.415 8.49121C114.196 8.49121 113.985 8.55259 113.78 8.67536C113.576 8.79813 113.405 8.99593 113.269 9.26875C113.139 9.53475 113.074 9.88259 113.074 10.3123C113.074 10.7283 113.149 11.0694 113.299 11.3354C113.45 11.6014 113.647 11.7992 113.893 11.9287C114.138 12.0583 114.401 12.1231 114.681 12.1231C114.913 12.1231 115.124 12.089 115.315 12.0208C115.506 11.9526 115.693 11.8605 115.878 11.7446L116.236 12.3994C116.011 12.5494 115.755 12.6756 115.468 12.7779C115.182 12.8802 114.875 12.9314 114.548 12.9314ZM117.596 12.8086V7.80575H118.445L118.527 8.50144H118.558C118.776 8.27636 119.011 8.08539 119.264 7.92852C119.516 7.76482 119.796 7.68298 120.102 7.68298C120.478 7.68298 120.774 7.76482 120.993 7.92852C121.211 8.09221 121.375 8.31729 121.484 8.60375C121.736 8.33093 121.992 8.10926 122.251 7.93875C122.517 7.76823 122.803 7.68298 123.11 7.68298C123.636 7.68298 124.021 7.85349 124.266 8.19452C124.519 8.53554 124.645 9.02321 124.645 9.65752V12.8086H123.612V9.79052C123.612 9.354 123.543 9.04367 123.407 8.85952C123.277 8.66854 123.066 8.57305 122.773 8.57305C122.602 8.57305 122.421 8.63103 122.23 8.74698C122.046 8.85611 121.849 9.02662 121.637 9.25852V12.8086H120.604V9.79052C120.604 9.354 120.536 9.04367 120.399 8.85952C120.27 8.66854 120.058 8.57305 119.765 8.57305C119.424 8.57305 119.045 8.80154 118.629 9.25852V12.8086H117.596Z" fill="#58656D"/>
<rect x="0.651442" y="0.479567" width="144.869" height="18.0409" rx="7.19351" stroke="#25BEB7" stroke-width="0.959135"/>
</svg>
