<svg width="44" height="44" fill="none" xmlns="http://www.w3.org/2000/svg"><rect width="44" height="44" rx="6" fill="#31C6F7"/><g clip-path="url(#a)"><path d="M10.625 24.766a2.42 2.42 0 0 1-2.719 1.359c.453 1.964 3.082 6.163 9.969 7.25 6.887 1.088 11.328-1.36 12.688-2.719 1.812-1.208 5.256-5.075 4.53-10.875-.906-7.25-6.343-10.422-11.78-10.875-5.438-.453-9.97 3.625-11.782 7.703-1.812 4.078 0 6.344-.906 8.157z" fill="#fff"/><path d="M22.972 8c-3.991 0-7.713 1.8-10.265 5.012-1.83 2.312-2.791 5.162-2.791 8.103v2.102c0 1.08-.75 2.1-2.25 2.19-.36.03-.661.27-.661.631-.06.99.99 2.791 2.431 4.232.99 1.02 2.16 1.83 3.422 2.46a3.625 3.625 0 0 0 3.57 4.263 3.583 3.583 0 0 0 3.542-2.882h3.032c.39 2.04 2.52 3.45 4.802 2.67 1.982-.66 2.852-2.91 2.13-4.741a15.517 15.517 0 0 0 2.221-1.77 12.965 12.965 0 0 0 3.843-9.244c0-3.483-1.351-6.753-3.813-9.214A13.17 13.17 0 0 0 22.972 8zm0 1.47c3.09 0 6.002 1.202 8.192 3.392a11.51 11.51 0 0 1 3.392 8.193 11.51 11.51 0 0 1-3.39 8.194 11.657 11.657 0 0 1-8.192 3.391h-2.972a3.635 3.635 0 0 0-3.54-2.912 3.662 3.662 0 0 0-3.063 1.652v.029a10.808 10.808 0 0 1-2.912-2.16c-1.02-1.02-1.59-1.95-1.83-2.55a3.453 3.453 0 0 0 1.74-1.022 3.575 3.575 0 0 0 .961-2.46v-2.162c0-2.55.841-5.072 2.432-7.082 2.25-2.882 5.582-4.502 9.183-4.502h-.001zm-2.912 7.234a1.44 1.44 0 1 0 .002 2.88 1.44 1.44 0 0 0-.002-2.88zm8.705 0a1.44 1.44 0 1 0 0 2.88 1.44 1.44 0 0 0 0-2.88zm-8.914 5.762a.719.719 0 0 0-.66 1.021 5.815 5.815 0 0 0 5.251 3.332 5.764 5.764 0 0 0 5.253-3.332.72.72 0 0 0-.661-1.02h-.03a.678.678 0 0 0-.63.42 4.338 4.338 0 0 1-3.932 2.49 4.338 4.338 0 0 1-3.932-2.49.773.773 0 0 0-.66-.42z" fill="#000"/></g><defs><clipPath id="a"><path fill="#fff" transform="translate(7 8)" d="M0 0h29v29H0z"/></clipPath></defs></svg>